<?xml version="1.0" encoding="UTF-8"?>
<!-- Created with Inkscape (http://www.inkscape.org/) -->
<svg width="100mm" height="125mm" version="1.1" viewBox="0 0 100 125" xml:space="preserve" xmlns="http://www.w3.org/2000/svg"><g transform="matrix(.63269 0 0 .62546 -13.685 -16.42)"><g transform="matrix(.04474 0 0 -.04474 20.316 228.12)"><g transform="translate(-1.6562e-5,9.3e-5)" fill="#986a44"><path transform="scale(1,-1)" d="m2196-4512c126.26 67.827 218.61 553 16.009 632l-228-220s-15.732-10.049-12.197 1.7556c91.802 306.56-149.9 428.81-226.66 428.81l-0.1617-0.5659h-409.98v-289c-159.61-6e-4 -289 129.39-289 289h1.6632l-1.6632 100c0 314.43 77.115 392.43 145.11 497.55 217.44 253.8 268.31 401.19 128.89 608.45l-196.89 209.85 378.76 15.535c151.67-172.62 147.73-277.59 163.97-396.26 7.8227-38.919 4.2464-90.238 56.25-103.73h1191.4v-290.57h-136.12v-790.77c2e-4 -188.57-234.32-644.6-581.4-692.05zm-1072.9 2257.8-322.12 331.82c-142.99 268.32-270.99 471.09-60.2 886.84 273.38 361.51 170.27 292.57 29.349 511.63l464.86 476.86 890 2.0098c-25.002-22.642 68.651-366.19-102.38-515.01-171.03-148.82-168.63-285.31-7.7734-309.85 160.86-24.541 187.36 22.156 227.46 109.99l12.694 194.85 671.01 5.0013 615-646.99-218-206c-64.406-44.287-164.89-72.392-211.08-72.536-45.177-0.1411-153.04-8.0077-242.46-35.483l-124.19 242.46c61.389 40.884 124.19 49.782 209.74 58.549 43.546 4.8164 125.65 11.252 155.79 38.532 14.818 8.6324-1.6048 26.487-7.9928 32.999l-292.8 298.47-285.56 1.9982c-20.043-5.132-63.32-123.31-110.35-170.34-47.31-47.31-59.138-88.707 0-147.84 59.138-59.138 206.98-206.98 354.83-709.65h-266.12c0 47.31-177.63 438.85-565.79 673.84-0.1874-238.94-146.17-521.78-408-769l-196 188c448.2 513.69 272.05 577.45 274.6 820.2l-2.5526 153.55c0 139.57 22.951 171.25 119.88 335.57 113.53 130.48 82.751 149.67 51.076 149.67l-415 9.0093-173.44-180.97c-27.312-30.447-24.408-55.539-22.927-89.134 63.614-365.05-69.595-410.58-227.38-677.51-40.773-153.67-75.726-282.33 55.291-449.7l509.32-526.29zm-352.97 1730.3-0.1386-0.13861 0.0116 0.31186c0.0438-0.0682 0.0832-0.10513 0.12705-0.17325zm1695.4-3138.9c13.827 2.4227 11.36 28.736 21.253 61.979v571.64h-778.11l-0.7162-2.8183v2.8183c-95.578 0-356.74-205.26-333.01-335.83l306.95-3.0262 0.2194-0.023c0.7737 79.599 65.458 143.75 145.06 143.87 80.235 0 145.28-65.045 145.28-145.28-0.039-10.994-1.3251-21.949-3.8347-32.653l66.322-7.8889c176.09-27.082 381.9-227.68 381.9-227.68 26.225-19.414 40.388-26.564 48.685-25.11zm778.01 455.83c-142.27 6.588-181.79 146.02-330.07 177.78v290.57c174.95-8.4227 236.54-122.97 347.32-171.4 4.6371-2.0269 6.5381-3.0984 10.753-4.9782v522.12h-804.84c-171.47 90.057-433.67 286.2-682.97 103.51l-149.37 247.75c157.87 71.795 390.53 229.87 832.34-60.697h1095.4v-1104.2h-288.68c-10.464-0.813-20.407-0.9589-29.892-0.5197zm-955.09 2243.6 235.5 115.33-0.046 0.0462z" stroke-width="5.8113"/><path transform="matrix(2.8835,0,0,-2.8835,148.17,4350.4)" d="m200.56 243.64c-0.0242 6.9295-51.011 36.03-55.928 40.913-4.917 4.8828-34.373 55.665-41.303 55.641-6.9295-0.0242-36.03-51.011-40.913-55.928-4.8828-4.917-55.665-34.373-55.641-41.303 0.024187-6.9295 51.011-36.03 55.928-40.913s34.373-55.665 41.303-55.641c6.9295 0.0242 36.03 51.011 40.913 55.928 4.8828 4.917 55.665 34.373 55.641 41.303z" stroke-width="5.9138"/><path d="m441 3090c-175.86-169.72-351.72-339.45-398.22-469.45-46.499-130 36.364-220.28 119.22-310.55l187.99 182.73 6.0062 9.2749c13.819 21.335-25.136 36.978 0 90l71.115 83.428c19.579 12.028 14.879 4.5716 53.155-19.797l49.724-44.63 47.645-49.285c57.69-48.075-0.7903-102.97-10.696-125.61l-383.38-392.54c-179.15-161.68-106.36-373.18-106.36-373.18s-97.406 265.56-2.2177-0.208c28-78.176 119.58-275.18 340.01-275.18l27.305 253.01c-35.311 25.994-139.68 61.067-89.307 145.98l439.01 458.01c87.933 92.796 152.26 273.79 57.994 403z" stroke-width="5.9138"/></g></g></g></svg>
