<?xml version="1.0" encoding="UTF-8" standalone="no"?>
<!-- Created with Inkscape (http://www.inkscape.org/) -->

<svg
   width="100mm"
   height="125mm"
   version="1.1"
   viewBox="0 0 100 125"
   xml:space="preserve"
   id="svg14"
   sodipodi:docname="rhino.svg"
   inkscape:version="1.2.1 (9c6d41e410, 2022-07-14, custom)"
   xmlns:inkscape="http://www.inkscape.org/namespaces/inkscape"
   xmlns:sodipodi="http://sodipodi.sourceforge.net/DTD/sodipodi-0.dtd"
   xmlns="http://www.w3.org/2000/svg"
   xmlns:svg="http://www.w3.org/2000/svg"><defs
     id="defs18" /><sodipodi:namedview
     id="namedview16"
     pagecolor="#ffffff"
     bordercolor="#000000"
     borderopacity="0.25"
     inkscape:showpageshadow="2"
     inkscape:pageopacity="0.0"
     inkscape:pagecheckerboard="0"
     inkscape:deskcolor="#d1d1d1"
     inkscape:document-units="mm"
     showgrid="false"
     inkscape:zoom="1.0260299"
     inkscape:cx="298.72424"
     inkscape:cy="378.64393"
     inkscape:window-width="1836"
     inkscape:window-height="1011"
     inkscape:window-x="0"
     inkscape:window-y="0"
     inkscape:window-maximized="1"
     inkscape:current-layer="svg14" /><g
     transform="matrix(0.63269309,0,0,0.62546353,-13.685133,-16.420367)"
     id="g12"><g
       transform="matrix(0.04474,0,0,-0.04474,20.316,228.12)"
       id="g10"><g
         transform="translate(-1.6562e-5,9.3e-5)"
         fill="#986a44"
         id="g8"><path
           transform="scale(1,-1)"
           d="m 2196,-4512 c 126.26,67.827 218.61,553 16.009,632 l -228,-220 c 0,0 -15.732,-10.049 -12.197,1.7556 91.802,306.56 -149.9,428.81 -226.66,428.81 l -0.1617,-0.5659 h -409.98 v -289 c -159.61,-6e-4 -289,129.39 -289,289 h 1.6632 l -1.6632,100 c 0,314.43 77.115,392.43 145.11,497.55 217.44,253.8 268.31,401.19 128.89,608.45 l -196.89,209.85 378.76,15.535 c 151.67,-172.62 147.73,-277.59 163.97,-396.26 7.8227,-38.919 4.2464,-90.238 56.25,-103.73 h 1191.4 v -290.57 h -136.12 v -790.77 c 2e-4,-188.57 -234.32,-644.6 -581.4,-692.05 z m -1072.9,2257.8 c 0,0 -322.12,331.82 -322.12,331.82 -142.99,268.32 -270.99,471.09 -60.2,886.84 273.38,361.51 170.27,292.57 29.349,511.63 l 464.86,476.86 890,2.0098 c -25.002,-22.642 68.651,-366.19 -102.38,-515.01 -171.03,-148.82 -168.63,-285.31 -7.7734,-309.85 160.86,-24.541 187.36,22.156 227.46,109.99 l 12.694,194.85 671.01,5.0013 615,-646.99 -218,-206 c -64.406,-44.287 -164.89,-72.392 -211.08,-72.536 -45.177,-0.1411 -153.04,-8.0077 -242.46,-35.483 l -124.19,242.46 c 61.389,40.884 124.19,49.782 209.74,58.549 43.546,4.8164 125.65,11.252 155.79,38.532 14.818,8.6324 -1.6048,26.487 -7.9928,32.999 l -292.8,298.47 -285.56,1.9982 c -20.043,-5.132 -63.32,-123.31 -110.35,-170.34 -47.31,-47.31 -59.138,-88.707 0,-147.84 59.138,-59.138 206.98,-206.98 354.83,-709.65 h -266.12 c 0,47.31 -177.63,438.85 -565.79,673.84 -0.1874,-238.94 -146.17,-521.78 -408,-769 l -196,188 c 448.2,513.69 272.05,577.45 274.6,820.2 l -2.5526,153.55 c 0,139.57 22.951,171.25 119.88,335.57 113.53,130.48 82.751,149.67 51.076,149.67 l -415,9.0093 -173.44,-180.97 c -27.312,-30.447 -24.408,-55.539 -22.927,-89.134 63.614,-365.05 -69.595,-410.58 -227.38,-677.51 -40.773,-153.67 -75.726,-282.33 55.291,-449.7 l 509.32,-526.29 z m -352.97,1730.3 -0.1386,-0.13861 0.0116,0.31186 c 0.0438,-0.0682 0.0832,-0.10513 0.12705,-0.17325 z m 1695.4,-3138.9 c 13.827,2.4227 11.36,28.736 21.253,61.979 v 571.64 h -778.11 l -0.7162,-2.8183 v 2.8183 c -95.578,0 -356.74,-205.26 -333.01,-335.83 l 306.95,-3.0262 0.2194,-0.023 c 0.7737,79.599 65.458,143.75 145.06,143.87 80.235,0 145.28,-65.045 145.28,-145.28 -0.039,-10.994 -1.3251,-21.949 -3.8347,-32.653 l 66.322,-7.8889 c 176.09,-27.082 381.9,-227.68 381.9,-227.68 26.225,-19.414 40.388,-26.564 48.685,-25.11 z m 778.01,455.83 c -142.27,6.588 -181.79,146.02 -330.07,177.78 v 290.57 c 174.95,-8.4227 236.54,-122.97 347.32,-171.4 4.6371,-2.0269 6.5381,-3.0984 10.753,-4.9782 v 522.12 h -804.84 c -171.47,90.057 -433.67,286.2 -682.97,103.51 l -149.37,247.75 c 157.87,71.795 390.53,229.87 832.34,-60.697 h 1095.4 v -1104.2 h -288.68 c -10.464,-0.813 -20.407,-0.9589 -29.892,-0.5197 z m -955.09,2243.6 235.5,115.33 -0.046,0.0462 z"
           stroke-width="5.8113"
           id="path2" /><path
           transform="matrix(2.8835,0,0,-2.8835,148.17,4350.4)"
           d="m 200.56,243.64 c -0.0242,6.9295 -51.011,36.03 -55.928,40.913 -4.917,4.8828 -34.373,55.665 -41.303,55.641 -6.9295,-0.0242 -36.03,-51.011 -40.913,-55.928 -4.8828,-4.917 -55.665,-34.373 -55.641,-41.303 0.024187,-6.9295 51.011,-36.03 55.928,-40.913 4.917,-4.883 34.373,-55.665 41.303,-55.641 6.9295,0.0242 36.03,51.011 40.913,55.928 4.8828,4.917 55.665,34.373 55.641,41.303 z"
           stroke-width="5.9138"
           id="path4" /><path
           d="M 441,3090 C 265.14,2920.28 89.28,2750.55 42.78,2620.55 -3.719,2490.55 79.144,2400.27 162,2310 l 187.99,182.73 6.0062,9.2749 c 13.819,21.335 -25.136,36.978 0,90 l 71.115,83.428 c 19.579,12.028 14.879,4.5716 53.155,-19.797 l 49.724,-44.63 47.645,-49.285 c 57.69,-48.075 -0.7903,-102.97 -10.696,-125.61 l -383.38,-392.54 c -179.15,-161.68 -106.36,-373.18 -106.36,-373.18 0,0 -97.406,265.56 -2.2177,-0.208 28,-78.176 119.58,-275.18 340.01,-275.18 l 27.305,253.01 c -35.311,25.994 -139.68,61.067 -89.307,145.98 l 439.01,458.01 c 87.933,92.796 152.26,273.79 57.994,403 z"
           stroke-width="5.9138"
           id="path6" /></g></g></g></svg>
