<?xml version="1.0" standalone="no"?>
<!DOCTYPE svg PUBLIC "-//W3C//DTD SVG 20010904//EN"
 "http://www.w3.org/TR/2001/REC-SVG-20010904/DTD/svg10.dtd">
<svg version="1.0" xmlns="http://www.w3.org/2000/svg"
 width="944.000000pt" height="944.000000pt" viewBox="0 0 944.000000 944.000000"
 preserveAspectRatio="xMidYMid meet">
<metadata>
Created by potrace 1.14, written by Peter Selinger 2001-2017
</metadata>
<g transform="translate(0.000000,944.000000) scale(0.100000,-0.100000)"
fill="#000000" stroke="none">
<path d="M5638 9391 c41 -42 142 -211 126 -211 -4 0 -2 -6 3 -12 11 -14 48
-126 57 -173 4 -16 9 -41 12 -55 23 -107 31 -203 28 -320 -2 -63 -6 -126 -8
-140 -3 -14 -7 -39 -10 -55 -7 -46 -41 -131 -76 -189 -31 -51 -119 -126 -148
-126 -8 0 -40 24 -71 54 -31 30 -88 85 -127 123 -40 37 -121 114 -180 171 -59
57 -117 108 -127 114 -18 9 -19 8 -12 -18 10 -40 11 -45 18 -84 4 -19 10 -48
13 -65 8 -44 9 -152 0 -218 -6 -54 -51 -196 -65 -207 -3 -3 -13 -18 -21 -35
-26 -52 -161 -180 -230 -218 -76 -42 -157 -66 -220 -66 -25 1 -49 0 -55 -1 -5
-1 -14 -1 -20 0 -5 1 -185 2 -398 2 l-388 -1 2 149 c0 82 -2 153 -5 158 -3 5
-3 12 0 15 4 4 7 188 4 278 0 11 -77 8 -145 -6 -34 -7 -158 -55 -165 -64 -3
-3 -23 -18 -45 -33 -39 -25 -125 -104 -125 -114 0 -3 -11 -17 -24 -31 -14 -15
-23 -30 -20 -35 3 -4 1 -8 -4 -8 -5 0 -20 -24 -32 -52 -51 -118 -56 -163 -55
-448 1 -140 5 -280 9 -310 4 -30 9 -73 12 -95 3 -22 7 -47 9 -55 2 -8 7 -31
10 -50 3 -19 11 -53 17 -75 6 -22 12 -45 13 -50 5 -24 60 -153 83 -195 30 -55
149 -238 165 -255 7 -6 27 -30 45 -53 19 -23 42 -51 53 -64 10 -13 22 -28 26
-33 5 -6 24 -30 43 -55 20 -25 53 -72 75 -105 21 -33 46 -71 55 -85 17 -25 82
-157 87 -175 2 -5 12 -44 23 -85 26 -94 28 -221 5 -310 -17 -67 -97 -243 -121
-268 -8 -7 -14 -17 -14 -21 0 -5 -35 -45 -77 -89 -43 -44 -134 -140 -203 -213
-69 -73 -186 -194 -260 -270 -330 -336 -576 -589 -585 -601 -5 -8 -21 -36 -35
-63 -14 -28 -27 -52 -30 -55 -3 -3 -30 -54 -60 -115 -30 -60 -58 -111 -62
-113 -5 -2 -8 -8 -8 -13 0 -5 -20 -55 -43 -112 -44 -103 -81 -214 -92 -276 -3
-19 -7 -37 -9 -40 -27 -46 -24 -439 4 -491 5 -10 7 -20 4 -23 -9 -9 50 -205
96 -322 65 -163 117 -258 192 -350 5 -5 34 -46 66 -90 196 -275 243 -387 204
-490 -13 -33 -52 -96 -72 -115 -15 -14 -142 -172 -177 -221 l-41 -56 306 -311
c169 -171 393 -398 498 -504 l191 -193 949 -2 949 -3 3 133 c8 350 3 530 -14
558 -2 4 -6 20 -8 36 -7 53 -43 151 -79 215 -34 61 -59 89 -187 213 -245 237
-268 470 -55 559 54 23 186 42 275 41 108 -2 156 -20 215 -80 76 -77 106 -145
110 -250 2 -38 6 -110 10 -160 5 -49 8 -104 9 -122 1 -17 4 -34 8 -38 3 -4
327 -9 718 -12 l712 -5 80 84 c119 125 358 374 488 509 63 65 151 156 194 201
119 125 455 474 504 524 23 23 42 46 42 49 0 3 -20 24 -45 48 -25 23 -74 69
-109 102 -56 53 -195 182 -292 271 -38 35 -112 73 -225 115 -92 34 -180 51
-280 54 -85 3 -196 15 -284 30 -33 6 -175 36 -188 40 -7 2 -32 -37 -60 -93
-26 -53 -83 -166 -127 -251 -44 -84 -80 -158 -80 -163 0 -11 118 -67 168 -79
99 -25 162 -36 257 -45 216 -20 319 -46 354 -88 11 -13 11 -19 -2 -38 -8 -13
-156 -165 -329 -340 l-314 -316 -144 -2 c-80 -1 -219 -2 -309 -2 l-163 0 -23
28 c-12 15 -39 60 -59 98 -20 39 -46 85 -56 101 -11 17 -23 37 -26 45 -6 13
-98 126 -114 140 -3 3 -14 22 -24 43 -33 72 -10 132 93 241 37 39 84 89 103
111 40 46 168 229 168 241 0 4 6 15 14 23 31 35 184 349 246 506 68 169 200
557 200 585 0 6 -102 10 -287 10 -157 0 -284 -3 -280 -6 17 -17 -146 -357
-210 -439 -4 -5 -21 -30 -38 -55 -36 -55 -135 -191 -149 -206 -6 -6 -24 -28
-41 -49 -81 -103 -282 -309 -386 -395 -30 -24 -55 -48 -57 -52 -2 -5 -8 -8
-13 -8 -5 0 -20 -9 -32 -21 -12 -11 -47 -38 -77 -59 -30 -22 -59 -43 -65 -48
-15 -12 -130 -82 -135 -82 -3 0 -5 24 -6 53 -1 73 -12 156 -35 257 -6 25 -12
52 -14 60 -2 8 -13 44 -25 80 -12 36 -23 70 -25 75 -3 15 -23 63 -51 125 -147
324 -365 626 -654 906 l-65 63 -29 -27 c-33 -30 -167 -157 -300 -285 l-89 -85
84 -99 c130 -154 137 -162 209 -258 56 -75 153 -220 207 -310 57 -94 116 -241
138 -345 14 -64 14 -261 1 -323 -11 -49 -27 -137 -42 -227 -3 -19 -7 -69 -8
-111 -2 -42 -6 -81 -10 -87 -3 -6 -3 -13 1 -15 5 -3 7 -31 6 -64 -9 -241 -4
-382 18 -468 15 -59 50 -146 71 -177 11 -16 16 -28 11 -28 -4 0 -3 -4 2 -8 10
-7 23 -28 67 -111 12 -23 25 -41 30 -41 4 0 8 -6 8 -13 0 -19 78 -129 135
-191 20 -21 74 -125 79 -150 10 -57 11 -57 -744 -71 l-205 -4 -85 88 c-304
315 -317 330 -327 368 -12 48 -6 145 15 248 8 40 8 351 0 397 -26 147 -78 266
-188 428 -67 100 -214 310 -229 327 -6 7 -11 14 -11 17 0 2 -17 31 -39 63 -37
56 -74 177 -109 354 -14 73 -7 267 12 326 4 12 9 31 11 44 8 39 84 183 129
245 24 32 152 169 285 304 133 135 241 245 241 246 0 0 71 73 158 161 86 88
228 233 315 321 86 89 157 166 157 171 0 6 4 11 8 11 5 0 30 30 58 67 141 192
207 351 230 553 3 25 7 59 10 75 3 17 7 46 9 65 4 33 9 65 20 120 9 47 26 77
57 100 l31 23 1321 2 c727 1 1332 5 1346 8 14 4 39 10 55 13 17 3 35 9 40 12
6 4 16 7 22 8 43 7 217 110 289 172 51 45 226 152 247 152 3 0 4 -246 3 -547
l-1 -548 -180 -1 c-100 0 -186 -4 -193 -8 -7 -4 -12 -4 -12 1 0 10 -211 10
-228 -1 -7 -4 -12 -4 -12 1 0 10 -211 10 -226 0 -6 -3 -14 -3 -18 0 -10 10
-226 9 -226 -1 0 -5 -6 -4 -12 1 -7 5 -144 8 -309 7 l-296 -1 -99 -54 c-54
-29 -121 -66 -149 -81 -142 -79 -420 -201 -470 -207 -3 -1 -6 -1 -7 -2 -94
-28 -308 -42 -388 -25 -82 17 -153 38 -164 48 -6 4 -16 8 -23 8 -7 0 -47 20
-87 45 -80 48 -86 51 -86 34 0 -6 -11 -25 -25 -43 -14 -18 -25 -38 -25 -44 0
-7 -4 -12 -9 -12 -5 0 -14 -12 -20 -27 -6 -16 -50 -91 -98 -168 -49 -77 -98
-157 -110 -177 l-22 -38 92 -43 c160 -76 185 -86 274 -116 149 -50 235 -64
388 -65 150 0 190 4 329 36 109 25 199 56 315 108 49 22 94 40 100 40 6 0 11
5 11 10 0 6 5 10 11 10 6 0 61 29 121 65 61 36 114 65 119 65 5 0 9 4 9 9 0 5
490 9 1143 9 628 0 1157 1 1175 1 l32 1 0 1165 0 1165 -22 1 c-139 3 -691 -1
-715 -5 -75 -14 -194 -75 -258 -133 -119 -107 -228 -181 -314 -214 -47 -18
-79 -22 -204 -23 -82 0 -152 1 -156 4 -4 3 -7 381 -7 840 1 459 -3 859 -7 889
-4 30 -9 66 -11 80 -4 33 -34 140 -47 163 -5 10 -9 26 -9 36 0 10 -4 22 -8 28
-5 5 -16 27 -24 49 -43 110 -157 316 -219 396 -16 20 -29 40 -29 43 0 22 -206
246 -300 326 -14 12 -34 29 -45 38 -115 98 -363 215 -497 235 l-36 5 46 -47z
m546 -1794 c3 -18 9 -43 12 -57 10 -48 7 -1222 -4 -1229 -5 -3 -390 -6 -854
-5 l-843 1 -70 28 c-38 15 -77 34 -86 41 -8 8 -19 14 -23 14 -8 0 -138 88
-146 98 -3 4 -21 19 -40 33 -35 27 -172 159 -164 159 4 0 -22 33 -48 61 -9 9
-14 20 -11 23 4 3 2 6 -4 6 -17 0 -72 132 -77 188 -3 28 -2 53 2 53 33 7 642
12 649 6 2 -3 7 -20 9 -39 12 -77 100 -208 140 -208 8 0 14 -4 14 -8 0 -14
107 -45 155 -45 102 0 224 74 271 165 26 50 41 119 34 154 -8 38 0 58 25 61
47 5 112 14 137 19 15 3 31 6 35 6 5 0 19 5 33 10 14 5 33 11 42 13 49 10 339
165 346 186 2 5 8 9 13 9 11 0 122 81 127 93 2 4 10 7 17 7 7 0 15 3 17 8 2 4
32 32 68 62 36 30 76 66 89 79 34 33 102 62 117 50 7 -5 15 -24 18 -42z"/>
<path d="M1835 8197 c-11 -6 -26 -18 -33 -28 -7 -10 -18 -24 -25 -31 -6 -7
-34 -47 -62 -88 -27 -41 -52 -77 -55 -80 -3 -3 -12 -18 -20 -34 -19 -36 -80
-97 -116 -116 -56 -29 -239 -155 -261 -179 -20 -23 -21 -27 -7 -42 22 -24 170
-129 182 -129 6 0 12 -3 14 -7 3 -7 45 -37 111 -77 15 -9 37 -31 47 -49 22
-36 16 -28 109 -163 86 -126 101 -144 123 -144 19 0 85 85 197 252 35 53 74
101 86 106 37 17 249 159 283 190 38 34 36 44 -13 84 -35 29 -212 148 -220
148 -2 0 -13 6 -22 14 -10 8 -33 27 -50 41 -18 15 -33 32 -33 39 0 7 -9 21
-20 31 -11 10 -20 24 -20 31 0 7 -3 14 -7 16 -5 2 -34 41 -65 88 -83 124 -99
141 -123 127z"/>
<path d="M1572 6183 c-262 -262 -352 -357 -352 -373 0 -6 -4 -10 -8 -10 -5 0
-21 -18 -38 -41 -16 -22 -34 -46 -41 -53 -23 -26 -115 -172 -134 -213 -48
-104 -59 -221 -31 -323 16 -62 78 -171 127 -226 6 -6 28 -33 50 -58 70 -82 85
-97 94 -92 7 5 165 156 337 322 73 71 87 100 68 135 -14 25 -17 83 -6 110 7
16 35 51 129 157 40 45 83 68 83 44 0 -4 15 -16 34 -26 54 -29 263 -237 281
-279 14 -33 13 -41 -1 -84 -9 -26 -27 -63 -40 -83 -13 -19 -227 -241 -476
-493 -428 -433 -518 -533 -549 -610 -7 -17 -16 -34 -20 -37 -14 -10 -50 -171
-52 -230 -1 -33 -6 -60 -10 -60 -5 0 -5 -5 -1 -11 6 -10 15 -97 15 -149 1 -8
3 -22 6 -30 3 -8 8 -23 9 -32 5 -26 73 -166 103 -213 95 -147 196 -242 324
-304 38 -18 74 -34 80 -35 7 -1 18 -5 25 -9 6 -5 12 -6 12 -4 0 2 29 -2 64 -8
96 -18 120 -15 122 15 1 14 4 43 7 65 4 22 9 67 12 100 5 61 12 116 19 170 3
17 8 64 11 107 7 74 6 76 -17 83 -25 8 -101 58 -132 87 -11 10 -23 18 -27 18
-3 0 -14 19 -22 43 -17 43 -15 83 6 123 11 20 204 224 522 549 295 302 460
477 492 521 20 27 55 90 78 139 78 165 96 297 61 462 -9 43 -65 149 -96 183
-18 19 -99 104 -179 189 -80 84 -166 175 -191 201 -381 402 -486 510 -494 510
-3 0 -118 -111 -254 -247z"/>
<path d="M996 3567 c3 -10 9 -15 12 -12 3 3 0 11 -7 18 -10 9 -11 8 -5 -6z"/>
</g>
</svg>
